<?xml version="1.0" encoding="UTF-8" standalone="no"?>
<!-- Created with Inkscape (http://www.inkscape.org/) -->
<svg
   xmlns:dc="http://purl.org/dc/elements/1.1/"
   xmlns:cc="http://creativecommons.org/ns#"
   xmlns:rdf="http://www.w3.org/1999/02/22-rdf-syntax-ns#"
   xmlns:svg="http://www.w3.org/2000/svg"
   xmlns="http://www.w3.org/2000/svg"
   xmlns:sodipodi="http://sodipodi.sourceforge.net/DTD/sodipodi-0.dtd"
   xmlns:inkscape="http://www.inkscape.org/namespaces/inkscape"
   width="744.09448"
   height="1052.3622"
   id="svg2"
   sodipodi:version="0.32"
   inkscape:version="0.46"
   version="1.0"
   style="display:inline"
   sodipodi:docname="rubyftw.svg"
   inkscape:output_extension="org.inkscape.output.svg.inkscape">
  <defs
     id="defs4" />
  <sodipodi:namedview
     id="base"
     pagecolor="#ffffff"
     bordercolor="#666666"
     borderopacity="1.0"
     gridtolerance="10000"
     guidetolerance="10"
     objecttolerance="10"
     inkscape:pageopacity="0"
     inkscape:pageshadow="2"
     inkscape:zoom="1.3893264"
     inkscape:cx="377.80543"
     inkscape:cy="599.49034"
     inkscape:document-units="px"
     inkscape:current-layer="layer2"
     showgrid="false"
     showguides="true"
     inkscape:guide-bbox="true"
     inkscape:window-width="1919"
     inkscape:window-height="1150"
     inkscape:window-x="1"
     inkscape:window-y="49" />
  <metadata
     id="metadata7">
    <rdf:RDF>
      <cc:Work
         rdf:about="">
        <dc:format>image/svg+xml</dc:format>
        <dc:type
           rdf:resource="http://purl.org/dc/dcmitype/StillImage" />
      </cc:Work>
    </rdf:RDF>
  </metadata>
  <g
     inkscape:label="badge"
     inkscape:groupmode="layer"
     id="layer1"
     style="display:inline" />
  <g
     inkscape:groupmode="layer"
     id="layer3"
     inkscape:label="shadow"
     style="opacity:1;display:inline" />
  <g
     inkscape:groupmode="layer"
     id="layer2"
     inkscape:label="text"
     style="display:inline">
    <g
       id="g3748"
       transform="translate(-3.999995,0)"
       inkscape:export-filename="/home/mike/ftw/rubyftw.png"
       inkscape:export-xdpi="90"
       inkscape:export-ydpi="90">
      <path
         d="M 137.10102,308.49773 L 137.10102,313.00997 L 147.4071,313.4704 L 150.20197,314.75961 L 150.20197,363.84161 L 147.4071,365.315 L 137.10102,365.77543 L 137.10102,370.28767 L 186.36063,370.28767 L 186.36063,365.77543 L 175.70519,365.315 L 172.91031,363.84161 L 172.91031,343.12219 C 173.95839,343.12219 175.00647,343.12219 175.87986,343.12219 C 193.52249,343.12219 198.06416,347.08191 203.47922,355.8301 C 206.2741,360.25024 207.84624,364.39414 216.92954,368.0776 C 221.12185,369.82726 227.58501,370.93224 235.09621,370.93224 C 240.51129,370.93224 246.45039,370.65602 252.56418,370.19555 L 252.56418,365.77543 C 251.69077,365.77543 250.99206,365.77543 250.29334,365.77543 C 238.58982,365.77543 233.34943,364.39413 229.68117,359.32938 C 226.36225,354.72507 224.9648,349.75241 219.54974,345.70061 C 215.53211,342.75385 209.59301,341.00421 201.2084,339.99126 C 220.94715,338.05745 231.25327,332.71642 231.25327,324.2445 C 231.25327,314.02293 217.27889,308.49773 190.20359,308.49773 L 137.10102,308.49773 M 172.9103,313.55332 L 180.94556,313.55332 C 197.88946,313.55332 206.79813,317.78929 206.79813,325.34037 C 206.79813,333.8123 197.88946,337.67993 179.19877,337.67993 C 177.2773,337.67993 175.18114,337.67993 172.9103,337.58785 L 172.9103,313.55332"
         style="font-size:122.76635742px;font-style:normal;font-variant:normal;font-weight:bold;font-stretch:normal;text-align:center;line-height:100%;writing-mode:lr-tb;text-anchor:middle;fill:#800000;fill-opacity:1;stroke:#000000;stroke-width:3.6236856;stroke-linecap:butt;stroke-linejoin:miter;stroke-miterlimit:4;stroke-opacity:1;display:inline;font-family:Bitstream Charter;-inkscape-font-specification:Bitstream Charter Bold"
         id="path3295" />
      <path
         id="path3291"
         d="M 252.54232,308.2675 L 252.54232,312.77974 L 263.54714,313.24017 L 265.99265,314.52938 L 265.99265,346.39125 C 265.99265,353.48189 266.86605,358.91499 273.67856,363.61138 C 280.8404,368.39986 293.76672,371.16248 311.05998,371.16248 C 343.89968,371.16248 357.17537,363.70346 357.17537,346.85168 L 357.17537,314.89772 L 359.62088,313.33225 L 370.27632,312.77974 L 370.27632,308.2675 L 330.62407,308.2675 L 330.62407,312.77974 L 341.80356,313.33225 L 344.42374,314.89772 L 344.42374,345.93081 C 344.42374,358.17828 337.26187,363.88764 317.87246,363.88764 C 296.91094,363.88764 289.3997,358.63871 289.3997,346.75959 L 289.3997,314.52938 L 291.84523,313.24017 L 302.67535,312.77974 L 302.67535,308.2675 L 252.54232,308.2675"
         style="font-size:122.76635742px;font-style:normal;font-variant:normal;font-weight:bold;font-stretch:normal;text-align:center;line-height:100%;writing-mode:lr-tb;text-anchor:middle;fill:#800000;fill-opacity:1;stroke:#000000;stroke-width:3.6236856;stroke-linecap:butt;stroke-linejoin:miter;stroke-miterlimit:4;stroke-opacity:1;display:inline;font-family:Bitstream Charter;-inkscape-font-specification:Bitstream Charter Bold" />
      <path
         d="M 143.5317,309.11283 L 143.5317,313.53616 L 153.63473,313.98751 L 156.37451,315.25132 L 156.37451,363.36622 L 153.63473,364.81058 L 143.5317,365.26193 L 143.5317,369.68523 L 191.82071,369.68523 L 191.82071,365.26193 L 181.37522,364.81058 L 178.63542,363.36622 L 178.63542,343.05505 C 179.66285,343.05505 180.69027,343.05505 181.54645,343.05505 C 198.84143,343.05505 203.29364,346.93675 208.60201,355.51257 C 211.3418,359.84562 212.88297,363.90786 221.78731,367.51873 C 225.89701,369.2339 232.2328,370.31715 239.59602,370.31715 C 244.90438,370.31715 250.72649,370.04635 256.71979,369.59496 L 256.71979,365.26193 C 255.86359,365.26193 255.17864,365.26193 254.49369,365.26193 C 243.0208,365.26193 237.88364,363.90785 234.28765,358.9429 C 231.03413,354.42932 229.66423,349.55463 224.35586,345.58267 C 220.41741,342.69397 214.59532,340.9788 206.37591,339.98581 C 225.72576,338.0901 235.82879,332.85432 235.82879,324.54932 C 235.82879,314.52915 222.12975,309.11283 195.58793,309.11283 L 143.5317,309.11283 M 177.59701,313.69788 L 185.47393,313.69788 C 202.08398,313.69788 210.81712,317.85039 210.81712,325.25267 C 210.81712,333.55768 202.08398,337.34911 183.76156,337.34911 C 181.87794,337.34911 179.82309,337.34911 177.59701,337.25883 L 177.59701,313.69788"
         style="font-size:120.34738159px;font-style:normal;font-variant:normal;font-weight:bold;font-stretch:normal;text-align:center;line-height:100%;writing-mode:lr-tb;text-anchor:middle;fill:#ffffff;fill-opacity:1;stroke:#000000;stroke-width:3.55228472;stroke-linecap:butt;stroke-linejoin:miter;stroke-miterlimit:4;stroke-opacity:1;font-family:Bitstream Charter;-inkscape-font-specification:Bitstream Charter Bold"
         id="path3275" />
      <path
         id="path3271"
         d="M 256.20873,308.88714 L 256.20873,313.31047 L 266.99669,313.76182 L 269.39403,315.02563 L 269.39403,346.25969 C 269.39403,353.21062 270.25021,358.53667 276.92848,363.14053 C 283.94922,367.83464 296.62082,370.54284 313.57333,370.54284 C 345.76598,370.54284 358.78008,363.23079 358.78008,346.71106 L 358.78008,315.38672 L 361.17739,313.8521 L 371.62289,313.31047 L 371.62289,308.88714 L 332.75195,308.88714 L 332.75195,313.31047 L 343.71116,313.8521 L 346.27971,315.38672 L 346.27971,345.80833 C 346.27971,357.81448 339.25895,363.41134 320.25161,363.41134 C 299.70311,363.41134 292.33986,358.26584 292.33986,346.62078 L 292.33986,315.02563 L 294.7372,313.76182 L 305.35393,313.31047 L 305.35393,308.88714 L 256.20873,308.88714"
         style="font-size:120.34738159px;font-style:normal;font-variant:normal;font-weight:bold;font-stretch:normal;text-align:center;line-height:100%;writing-mode:lr-tb;text-anchor:middle;fill:#ffffff;fill-opacity:1;stroke:#000000;stroke-width:3.55228472;stroke-linecap:butt;stroke-linejoin:miter;stroke-miterlimit:4;stroke-opacity:1;font-family:Bitstream Charter;-inkscape-font-specification:Bitstream Charter Bold" />
      <path
         d="M 384.83961,308.82002 L 384.83961,313.33226 L 395.14571,313.79269 L 397.94057,315.0819 L 397.94057,364.1639 L 395.14571,365.63729 L 384.83961,366.09772 L 384.83961,370.60996 L 438.81557,370.60996 C 467.46299,370.60996 482.83482,364.16389 482.83482,352.56102 C 482.83482,343.53657 471.48062,337.9193 451.04314,337.73513 C 467.63767,335.43297 476.02231,330.4603 476.02231,323.27757 C 476.02231,313.70061 463.096,308.82002 437.24347,308.82002 L 384.83961,308.82002 M 420.64891,336.26175 L 420.64891,313.97686 C 423.09442,313.88477 425.36525,313.79269 427.63609,313.79269 C 444.05596,313.79269 451.91653,317.19988 451.91653,324.38261 C 451.91653,332.67037 443.53192,336.35383 425.36525,336.35383 C 423.79315,336.35383 422.22103,336.35383 420.64891,336.26175 M 420.64891,365.36103 L 420.64891,341.60276 C 425.53993,341.41858 429.3829,341.41858 432.17774,341.41858 C 449.64569,341.41858 458.37969,345.28622 458.37969,353.11355 C 458.37969,361.95382 449.29633,365.5452 429.03352,365.5452 C 426.41333,365.5452 423.61846,365.45311 420.64891,365.36103"
         style="font-size:122.76635742px;font-style:normal;font-variant:normal;font-weight:bold;font-stretch:normal;text-align:center;line-height:100%;writing-mode:lr-tb;text-anchor:middle;fill:#800000;fill-opacity:1;stroke:#000000;stroke-width:3.6236856;stroke-linecap:butt;stroke-linejoin:miter;stroke-miterlimit:4;stroke-opacity:1;display:inline;font-family:Bitstream Charter;-inkscape-font-specification:Bitstream Charter Bold"
         id="path3289" />
      <path
         d="M 382.60869,309.42879 L 382.60869,313.85212 L 392.71172,314.30347 L 395.45152,315.56728 L 395.45152,363.68218 L 392.71172,365.12654 L 382.60869,365.57789 L 382.60869,370.00119 L 435.52112,370.00119 C 463.60408,370.00119 478.673,363.68217 478.673,352.30793 C 478.673,343.4613 467.54253,337.9547 447.50775,337.77416 C 463.77531,335.51736 471.99474,330.64267 471.99474,323.60147 C 471.99474,314.21321 459.32313,309.42879 433.97999,309.42879 L 382.60869,309.42879 M 417.71241,336.3298 L 417.71241,314.48402 C 420.10974,314.39375 422.33583,314.30347 424.56191,314.30347 C 440.65822,314.30347 448.36395,317.64354 448.36395,324.68473 C 448.36395,332.8092 440.14453,336.42008 422.33583,336.42008 C 420.79469,336.42008 419.25354,336.42008 417.71241,336.3298 M 417.71241,364.85572 L 417.71241,341.56557 C 422.50706,341.38503 426.2743,341.38503 429.01408,341.38503 C 446.13785,341.38503 454.69974,345.17646 454.69974,352.84956 C 454.69974,361.51565 445.79536,365.03626 425.93181,365.03626 C 423.36324,365.03626 420.62344,364.94599 417.71241,364.85572"
         style="font-size:120.34738159px;font-style:normal;font-variant:normal;font-weight:bold;font-stretch:normal;text-align:center;line-height:100%;writing-mode:lr-tb;text-anchor:middle;fill:#ffffff;fill-opacity:1;stroke:#000000;stroke-width:3.55228472;stroke-linecap:butt;stroke-linejoin:miter;stroke-miterlimit:4;stroke-opacity:1;font-family:Bitstream Charter;-inkscape-font-specification:Bitstream Charter Bold"
         id="path3269" />
      <path
         id="path3283"
         d="M 489.70945,308.82002 L 489.70945,313.33226 L 500.88895,314.25311 L 534.42741,346.29916 L 534.42741,364.25599 L 531.63254,365.5452 L 519.92901,366.00563 L 519.92901,370.60996 L 572.33287,370.60996 L 572.33287,366.00563 L 560.45467,365.5452 L 557.65979,364.25599 L 557.65979,344.08909 L 590.8489,314.3452 L 601.15498,313.33226 L 601.15498,308.82002 L 563.07485,308.82002 L 563.07485,313.24017 L 573.55562,314.25311 L 574.95307,315.7265 L 549.9739,338.28765 L 526.0428,314.89772 L 527.6149,313.79269 L 537.39696,313.33226 L 537.39696,308.82002 L 489.70945,308.82002"
         style="font-size:122.76635742px;font-style:normal;font-variant:normal;font-weight:bold;font-stretch:normal;text-align:center;line-height:100%;writing-mode:lr-tb;text-anchor:middle;fill:#800000;fill-opacity:1;stroke:#000000;stroke-width:3.6236856;stroke-linecap:butt;stroke-linejoin:miter;stroke-miterlimit:4;stroke-opacity:1;display:inline;font-family:Bitstream Charter;-inkscape-font-specification:Bitstream Charter Bold" />
      <path
         id="path3263"
         d="M 484.89117,309.42879 L 484.89117,313.85212 L 495.85038,314.75483 L 528.72799,346.16944 L 528.72799,363.77246 L 525.98821,365.03626 L 514.51528,365.48762 L 514.51528,370.00119 L 565.88658,370.00119 L 565.88658,365.48762 L 554.2424,365.03626 L 551.5026,363.77246 L 551.5026,344.00291 L 584.03776,314.8451 L 594.14077,313.85212 L 594.14077,309.42879 L 556.81097,309.42879 L 556.81097,313.76184 L 567.08525,314.75483 L 568.45515,316.19918 L 543.96816,338.31579 L 520.5086,315.38673 L 522.04974,314.30347 L 531.63904,313.85212 L 531.63904,309.42879 L 484.89117,309.42879"
         style="font-size:120.34738159px;font-style:normal;font-variant:normal;font-weight:bold;font-stretch:normal;text-align:center;line-height:100%;writing-mode:lr-tb;text-anchor:middle;fill:#ffffff;fill-opacity:1;stroke:#000000;stroke-width:3.55228472;stroke-linecap:butt;stroke-linejoin:miter;stroke-miterlimit:4;stroke-opacity:1;font-family:Bitstream Charter;-inkscape-font-specification:Bitstream Charter Bold" />
    </g>
    <g
       id="g3787"
       transform="translate(-3.2144761,0)"
       inkscape:export-filename="/home/mike/ftw/rubyftw.png"
       inkscape:export-xdpi="90"
       inkscape:export-ydpi="90">
      <g
         transform="translate(6.4446634,-332.19675)"
         id="g3551">
        <path
           style="font-size:122.76635742px;font-style:normal;font-variant:normal;font-weight:bold;font-stretch:normal;text-align:center;line-height:100%;writing-mode:lr-tb;text-anchor:middle;fill:#800000;fill-opacity:1;stroke:#000000;stroke-width:6.81609392;stroke-linecap:butt;stroke-linejoin:miter;stroke-miterlimit:4;stroke-opacity:1;display:inline;font-family:Bitstream Charter;-inkscape-font-specification:Bitstream Charter Bold"
           d="M 123.16741,974.53354 L 210.6876,974.53354 L 210.6876,965.13374 L 189.92009,964.17459 L 184.87656,961.10527 L 184.87656,916.40842 L 224.6315,916.40842 L 228.78502,918.90225 L 231.75178,932.90598 L 249.25583,932.90598 L 249.25583,888.20914 L 231.75178,888.20914 L 228.78502,902.21286 L 224.6315,904.70669 L 184.87656,904.70669 L 184.87656,856.94052 L 242.13555,856.94052 L 245.99237,859.43436 L 250.44254,878.04203 L 270.91337,878.04203 L 270.91337,845.81427 L 121.9807,845.81427 L 121.9807,855.21405 L 140.96813,856.1732 L 145.715,858.85885 L 145.715,961.10527 L 140.96813,964.17459 L 123.16741,965.13374 L 123.16741,974.53354"
           id="path3281" />
        <path
           style="font-size:120.34738159px;font-style:normal;font-variant:normal;font-weight:bold;font-stretch:normal;text-align:center;line-height:100%;writing-mode:lr-tb;text-anchor:middle;fill:#ffffff;fill-opacity:1;stroke:#000000;stroke-width:6.68178988;stroke-linecap:butt;stroke-linejoin:miter;stroke-miterlimit:4;stroke-opacity:1;font-family:Bitstream Charter;-inkscape-font-specification:Bitstream Charter Bold"
           d="M 134.14394,970.68348 L 219.93963,970.68348 L 219.93963,961.46898 L 199.58134,960.52872 L 194.63716,957.51988 L 194.63716,913.70374 L 233.60879,913.70374 L 237.68043,916.14843 L 240.58878,929.87623 L 257.7479,929.87623 L 257.7479,886.06009 L 240.58878,886.06009 L 237.68043,899.7879 L 233.60879,902.23256 L 194.63716,902.23256 L 194.63716,855.40758 L 250.76794,855.40758 L 254.54876,857.85227 L 258.91123,876.09331 L 278.97873,876.09331 L 278.97873,844.50056 L 132.98061,844.50056 L 132.98061,853.71513 L 151.59391,854.65537 L 156.24724,857.28812 L 156.24724,957.51988 L 151.59391,960.52872 L 134.14394,961.46898 L 134.14394,970.68348"
           id="path3261" />
      </g>
      <g
         transform="translate(6.67744e-2,-331.0957)"
         id="g3611">
        <path
           style="font-size:122.76635742px;font-style:normal;font-variant:normal;font-weight:bold;font-stretch:normal;text-align:center;line-height:100%;writing-mode:lr-tb;text-anchor:middle;fill:#800000;fill-opacity:1;stroke:#000000;stroke-width:5.71342373;stroke-linecap:butt;stroke-linejoin:miter;stroke-miterlimit:4;stroke-opacity:1;display:inline;font-family:Bitstream Charter;-inkscape-font-specification:Bitstream Charter Bold"
           d="M 302.82062,844.08994 L 302.82062,878.0442 L 317.20388,878.0442 L 320.53913,857.51819 L 323.87438,855.02437 L 348.88874,855.02437 L 348.88874,959.38094 L 345.34502,962.45026 L 331.79559,963.40941 L 331.79559,972.80921 L 394.12303,972.80921 L 394.12303,963.40941 L 380.57358,962.45026 L 377.02988,959.38094 L 377.02988,855.02437 L 402.04424,855.02437 L 405.17102,857.51819 L 408.71472,878.0442 L 423.09798,878.0442 L 423.09798,844.08994 L 302.82062,844.08994"
           id="path3279" />
        <path
           style="font-size:120.34738159px;font-style:normal;font-variant:normal;font-weight:bold;font-stretch:normal;text-align:center;line-height:100%;writing-mode:lr-tb;text-anchor:middle;fill:#ffffff;fill-opacity:1;stroke:#000000;stroke-width:4;stroke-linecap:butt;stroke-linejoin:miter;stroke-miterlimit:4;stroke-dasharray:none;stroke-opacity:1;font-family:Bitstream Charter;-inkscape-font-specification:Bitstream Charter Bold"
           d="M 304.40267,845.35811 L 304.40267,878.64334 L 318.50251,878.64334 L 321.77206,858.52176 L 325.04159,856.07709 L 349.56307,856.07709 L 349.56307,958.37743 L 346.08918,961.38627 L 332.80672,962.32653 L 332.80672,971.54103 L 393.90607,971.54103 L 393.90607,962.32653 L 380.62361,961.38627 L 377.14971,958.37743 L 377.14971,856.07709 L 401.67119,856.07709 L 404.73638,858.52176 L 408.21025,878.64334 L 422.31009,878.64334 L 422.31009,845.35811 L 304.40267,845.35811"
           id="path3259" />
      </g>
      <g
         transform="matrix(0.8581481,0,0,1,57.721356,-332.19132)"
         id="g3571">
        <path
           style="font-size:122.76635742px;font-style:normal;font-variant:normal;font-weight:bold;font-stretch:normal;text-align:center;line-height:100%;writing-mode:lr-tb;text-anchor:middle;fill:#800000;fill-opacity:1;stroke:#000000;stroke-width:5.71342373;stroke-linecap:butt;stroke-linejoin:miter;stroke-miterlimit:4;stroke-opacity:1;display:inline;font-family:Bitstream Charter;-inkscape-font-specification:Bitstream Charter Bold"
           d="M 492.96906,974.53354 L 513.18902,974.53354 L 544.87385,876.31555 L 577.18405,974.53354 L 597.40401,974.53354 L 629.29729,857.89969 L 642.42983,855.21405 L 642.42983,845.81427 L 596.98709,845.81427 L 596.98709,855.21405 L 610.74499,857.51602 L 613.24642,860.20167 L 591.35887,940.77108 L 560.50781,845.81427 L 539.45407,845.81427 L 509.43687,938.66093 L 486.09013,859.05068 L 487.75777,856.36503 L 500.68184,855.02221 L 500.68184,845.81427 L 446.06715,845.81427 L 446.06715,855.21405 L 459.19969,857.89969 L 492.96906,974.53354"
           id="text3163" />
        <path
           style="font-size:120.34738159px;font-style:normal;font-variant:normal;font-weight:bold;font-stretch:normal;text-align:center;line-height:100%;writing-mode:lr-tb;text-anchor:middle;fill:#ffffff;fill-opacity:1;stroke:#000000;stroke-width:5.60084677;stroke-linecap:butt;stroke-linejoin:miter;stroke-miterlimit:4;stroke-opacity:1;font-family:Bitstream Charter;-inkscape-font-specification:Bitstream Charter Bold"
           d="M 485.20561,970.68348 L 505.02715,970.68348 L 536.08767,874.40085 L 567.76125,970.68348 L 587.58277,970.68348 L 618.84764,856.34785 L 631.72142,853.71513 L 631.72142,844.50056 L 587.17409,844.50056 L 587.17409,853.71513 L 600.66089,855.97176 L 603.11304,858.60448 L 581.65675,937.58636 L 551.4136,844.50056 L 530.77469,844.50056 L 501.34892,935.51779 L 478.46221,857.47616 L 480.09697,854.84344 L 492.76639,853.52706 L 492.76639,844.50056 L 439.22785,844.50056 L 439.22785,853.71513 L 452.10163,856.34785 L 485.20561,970.68348"
           id="text3158" />
      </g>
    </g>
    <path
       style="fill:#d40000;fill-opacity:1;fill-rule:evenodd;stroke:#000000;stroke-width:3;stroke-linecap:round;stroke-linejoin:miter;stroke-miterlimit:4;stroke-dasharray:none;stroke-opacity:1"
       d="M 102.99342,373.77401 C 102.99342,373.77401 117.38809,381.09761 143.65205,382.10776 C 169.91602,383.11792 199.96806,372.76385 216.1305,374.78416 C 232.29294,376.80446 246.43508,389.68391 263.1026,395.99736 C 280.34091,402.52701 295.17494,407.10904 312.09499,401.04813 C 320.22018,398.13762 331.2879,386.65346 339.36912,384.63315 C 347.45034,382.61285 370.17877,381.09761 382.3006,385.13823 C 394.42243,389.17884 390.63435,396.75498 413.11025,401.04812 C 429.01665,404.08642 457.05188,398.27021 467.91102,390.9466 C 478.79838,383.60397 490.13439,377.057 502.25622,375.0367 C 514.37805,373.01639 551.50115,381.85523 568.67374,381.85523 C 585.84633,381.85523 627.26259,368.72324 627.26259,368.72324 C 627.26259,368.72324 611.10015,384.88569 596.95801,387.91614 C 582.81588,390.9466 572.96689,394.98721 553.774,392.96691 C 534.5811,390.9466 519.00039,387.86998 507.30697,392.71437 C 483.33994,402.64352 479.92056,408.43985 468.66864,413.16996 C 429.02015,429.83748 425.52387,420.92014 424.47447,423.52402 C 423.63014,425.61905 432.30315,437.16108 432.30315,437.16108 C 432.30315,437.16108 418.41355,440.19153 407.30188,435.14077 C 396.1902,430.09001 392.9072,427.31209 392.9072,427.31209 C 392.9072,427.31209 396.94781,431.3527 391.89705,441.45423 C 386.84628,451.55575 385.83613,450.5456 383.81583,459.63697 C 376.72984,476.84158 389.62865,485.65223 379.77522,501.30577 C 375.79756,507.01522 345.17112,505.92911 341.64196,502.31592 C 331.73046,489.0271 339.70181,476.69065 337.97267,463.33932 C 336.7123,453.60754 333.52909,450.08305 330.27774,443.97961 C 327.75236,436.90854 329.26759,426.30194 329.26759,426.30194 C 329.26759,426.30194 330.57642,428.63045 322.19652,434.38316 C 309.50723,443.09422 290.12418,436.90854 290.12418,436.90854 L 295.17494,424.02909 C 295.17494,424.02909 289.01433,427.9234 273.7092,422.7664 C 261.98054,418.81448 259.56706,418.22072 241.38432,407.10904 C 223.20157,395.99736 222.44396,391.95675 200.2206,390.9466 C 177.99725,389.93644 173.7041,397.00752 148.45028,392.96691 C 123.19647,388.9263 102.99342,372.76385 102.99342,373.77401 z"
       id="path3249"
       sodipodi:nodetypes="csssssssssscssssscscscccsccsccssssc"
       inkscape:export-filename="/home/mike/ftw/rubyftw.png"
       inkscape:export-xdpi="90"
       inkscape:export-ydpi="90" />
  </g>
</svg>
