<?xml version="1.0" encoding="utf-8"?>
<!-- Generator: Adobe Illustrator 15.0.2, SVG Export Plug-In . SVG Version: 6.00 Build 0)  -->
<!DOCTYPE svg PUBLIC "-//W3C//DTD SVG 1.1//EN" "http://www.w3.org/Graphics/SVG/1.1/DTD/svg11.dtd">
<svg version="1.1" xmlns="http://www.w3.org/2000/svg" xmlns:xlink="http://www.w3.org/1999/xlink" x="0px" y="0px"
	 width="282.078px" height="105.029px" viewBox="0 0 282.078 105.029" enable-background="new 0 0 282.078 105.029"
	 xml:space="preserve">
<g id="RUBY_ENTHUSIASTS_of___FORT_WORTH_1_">
	<text id="RUBY_ENTHUSIASTS_of___FORT_WORTH" transform="matrix(1 0 0 1 106.0288 48.0137)"><tspan x="0" y="0" font-family="'GillSans'" font-size="60.0167">RUBY</tspan><tspan x="2" y="24.007" font-family="'GillSans'" font-size="24.0067">ENTHUSIASTS </tspan><tspan x="157.915" y="31.009" font-family="'Baskerville-Italic'" font-size="20.0056">of </tspan><tspan x="172.814" y="24.007" font-family="'Baskerville-Italic'" font-size="20.0056"> </tspan><tspan x="2" y="46.013" font-family="'GillSans'" font-size="23.0064">FORT WORTH</tspan></text>
</g>
<g id="Vector_Smart_Object_xA0_Image_1_">
	<g>
		<g>
			<circle fill="#991111" cx="50.284" cy="50.26" r="48.645"/>
			<circle fill="#991111" cx="50.284" cy="50.26" r="48.645"/>
			<circle fill="#991111" cx="50.284" cy="50.26" r="48.645"/>
		</g>
		
			<path id="path3249_1_" inkscape:export-filename="/home/mike/ftw/rubyftw.png" inkscape:export-xdpi="90" inkscape:export-ydpi="90" sodipodi:nodetypes="csssssssssscssssscscscccsccsccssssc" fill="#FFFFFF" d="
			M17.002,41.938c0,0,1.86,0.946,5.254,1.077c3.395,0.13,7.279-1.208,9.368-0.947c2.088,0.261,3.917,1.926,6.071,2.742
			c2.228,0.844,4.146,1.436,6.332,0.653c1.05-0.376,2.481-1.861,3.525-2.122c1.045-0.262,3.982-0.457,5.549,0.065
			c1.566,0.522,1.077,1.501,3.982,2.057c2.056,0.392,5.679-0.359,7.083-1.306c1.407-0.949,2.873-1.795,4.439-2.056
			c1.566-0.262,6.365,0.881,8.584,0.881s7.572-1.697,7.572-1.697s-2.088,2.089-3.917,2.48c-1.828,0.392-3.1,0.914-5.581,0.653
			c-2.481-0.261-4.495-0.659-6.006-0.033c-3.098,1.284-3.54,2.033-4.994,2.644c-5.125,2.154-5.577,1.001-5.712,1.338
			c-0.109,0.271,1.012,1.762,1.012,1.762s-1.795,0.391-3.231-0.261c-1.436-0.653-1.86-1.011-1.86-1.011s0.522,0.522-0.131,1.828
			s-0.783,1.176-1.044,2.35c-0.916,2.225,0.751,3.362-0.522,5.387c-0.514,0.737-4.473,0.597-4.928,0.13
			c-1.281-1.718-0.251-3.312-0.475-5.037c-0.163-1.259-0.574-1.714-0.995-2.503c-0.326-0.914-0.131-2.285-0.131-2.285
			s0.169,0.301-0.914,1.045c-1.64,1.125-4.145,0.326-4.145,0.326l0.653-1.664c0,0-0.796,0.503-2.774-0.164
			c-1.516-0.511-1.828-0.587-4.178-2.023c-2.351-1.436-2.448-1.958-5.32-2.089c-2.873-0.131-3.427,0.783-6.691,0.261
			C19.613,43.895,17.002,41.807,17.002,41.938z"/>
		<g>
			<path fill="#FFFFFF" d="M35.09,32.574c0.188,1.083,0.282,2.006,0.282,2.769c0,3.043-1.319,4.564-3.956,4.564
				c-2.518,0-3.776-1.583-3.776-4.748l0.025-1.272l0.026-1.286c0-1.158-1.011-1.738-3.032-1.738c-0.069,0-0.223,0.004-0.462,0.014
				v3.73h1.85v5.158h-8.504v-5.158h1.747V25.41h-1.747v-4.931h7.964c2.894,0,4.83,0.341,5.806,1.024
				c0.976,0.683,1.464,2.037,1.464,4.062c0,2.458-1.362,3.867-4.085,4.225c-0.138,0.019-0.334,0.042-0.591,0.071
				c2.329,0.217,3.553,0.796,3.674,1.738l0.128,1.329l0.103,1.06c0.052,0.537,0.325,0.806,0.823,0.806
				c0.702,0,1.053-0.636,1.053-1.908v-0.31H35.09z M24.196,28.971h0.565c2.192,0,3.288-0.556,3.288-1.667
				c0-1.271-1.062-1.908-3.186-1.908c-0.137,0-0.359,0.005-0.668,0.014V28.971z"/>
			<path fill="#FFFFFF" d="M50.428,20.479v4.931h-1.773v9.213l0.025,1.484l-0.231,1.441c-0.583,1.687-2.458,2.529-5.626,2.529
				c-3.991,0-5.986-1.403-5.986-4.211v-1.483V25.41h-1.721v-4.931h7.81v4.931h-1.182v6.514c0,1.799,0.505,2.699,1.516,2.699
				c1.147,0,1.721-0.932,1.721-2.797V25.41h-1.13v-4.931H50.428z"/>
			<path fill="#FFFFFF" d="M52.124,20.479h6.628c3.289,0,5.451,0.325,6.487,0.975s1.554,2.016,1.554,4.098
				c0,1.535-0.279,2.574-0.834,3.116c-0.557,0.542-1.718,0.907-3.481,1.095c2.021,0.311,3.297,0.723,3.828,1.236
				c0.531,0.514,0.796,1.608,0.796,3.285c0,2.205-0.519,3.669-1.555,4.395c-1.036,0.726-3.13,1.088-6.281,1.088h-7.142v-5.158h1.722
				V25.41h-1.722V20.479z M58.752,25.41v3.349h0.925c1.353,0,2.03-0.565,2.03-1.695c0-1.103-0.72-1.654-2.158-1.654H58.752z
				 M58.752,30.878v3.73h0.796c1.644,0,2.466-0.678,2.466-2.034c0-1.13-0.831-1.696-2.492-1.696H58.752z"/>
			<path fill="#FFFFFF" d="M84.52,20.479v4.931h-1.541l-3.931,5.793v3.405h1.722v5.158h-8.504v-5.158h1.875v-3.405l-4.316-5.793
				h-1.336v-4.931h7.81v4.931h-1.336l1.876,3.321l2.209-3.321h-1.619v-4.931H84.52z"/>
			<path fill="#FFFFFF" d="M36.421,60.746v9.091h-5.038v-3.436h-3.624v4.407h4.92v2.269h-4.92v3.872h2.209v5.916h-9.752v-5.916
				h1.915V66.401h-1.915v-5.655H36.421z"/>
			<path fill="#FFFFFF" d="M55.188,60.746v9.771h-3.417v-4.116h-2.592v10.548h1.915v5.916h-9.751v-5.916h2.209V66.401h-2.71v4.116
				h-3.417v-9.771H55.188z"/>
			<path fill="#FFFFFF" d="M81.94,60.746v5.655h-1.886l-3.889,16.464h-5.009l-1.915-9.204l-2.092,9.204h-5.097l-4.036-16.464h-1.945
				v-5.655h8.544v5.655H63.32l1.856,8.815l1.974-8.815h-1.414v-5.655h8.132v5.655h-1.385l1.855,8.556l1.828-8.556H74.81v-5.655
				H81.94z"/>
		</g>
	</g>
</g>
</svg>
